<svg enable-background="new 0 0 64 64" height="64" viewBox="0 0 64 64" width="64" xmlns="http://www.w3.org/2000/svg"><path d="m45.8 24.2 13.7 8.1v16l-13.7 7.9-13.8-7.9v-16z" fill="#00b46f"/><path d="m32 0 13.8 8.2v16l-13.8 7.8-13.8-7.8v-16z" fill="#2294d9"/><path d="m45.8 8.2 13.7 8.1v16l-13.7 7.9-13.8-7.9v-16z" fill="#2294d9"/><path d="m18.2 8.2 13.8 8.1v16l-13.8 7.9-13.7-7.9v-16z" fill="#f85551"/><path d="m18.2 24.2 13.8 8.1v16l-13.8 7.9-13.7-7.9v-16z" fill="#f85551"/><path d="m32 32 13.8 8.2v16l-13.8 7.8-13.8-7.8v-16z" fill="#00b46f"/><path d="m45.8 8.2-13.8 8.1-13.8-8.1 13.8-8.2zm13.7 8.1-13.8 8.2-13.7-8.2 13.8-8.2z" fill="#30b2e9"/><path d="m32 48v-16l-13.8 8.2v16z" fill="#00ab64"/><path d="m45.8 40.2-13.8 7.8-13.8-7.8 13.8-8.2z" fill="#00ce8e"/><path d="m32 48-13.8-7.8 13.8-8.2z" fill="#00c783"/><path d="m32 16.3-13.8-8.1 13.8-8.2z" fill="#2caee7"/><path d="m32 16.3-13.8 8.2-13.7-8.2 13.7-8.1z" fill="#fb716c"/><path d="m59.5 32.3-13.7 7.9-13.8-8.2 13.8-7.5z" fill="#1f8ed6"/><path d="m18 56-13.5-7.8 13.5-8.2z" fill="#f64743"/><path d="m18.2 24.5v-16.3l13.8 8.1v15.7z" fill="#f96560"/><path d="m32 32v-15.7l-13.8 8.2v15.7z" fill="#b71d1d"/><path d="m32 32-13.8-7.5 13.8-8.2z" fill="#b21a1a"/><path d="m59.5 48.3-13.7-8.1 13.7-7.9z" fill="#10161a" fill-opacity=".2"/><path d="m45.8 56.2v-16l-13.8 7.8v16zm13.7-7.9v-16l-13.8 7.8v16z" fill="#007233"/><path d="m59.5 48.3-13.7-8.1 13.7-7.9z" fill="#00682c"/><path d="m59.5 32.3v-16l-13.7 8.2v15.7z" fill="#0759ba"/><path d="m59.5 32.3-13.7-7.8 13.7-8.2z" fill="#0860bf"/><path d="m4.5 16.3 13.8 7.8 13.7-7.8-13.4 8.3-.3 15.5-.3-15.5z" fill="#febcb7" opacity=".78"/><path d="m32 16.3 13.8 7.9 13.7-7.9-13.4 8.3-.3 15.6-.4-15.6z" fill="#4edcf8" opacity=".78"/><path d="m18.2 40.2 13.8 7.5 13.8-7.5-13.4 8-.4 15.8-.3-15.8z" fill="#00f3c9" opacity=".78"/></svg>