<?xml version="1.0" encoding="UTF-8"?>
<svg width="125px" height="118px" viewBox="0 0 125 118" version="1.1" xmlns="http://www.w3.org/2000/svg" xmlns:xlink="http://www.w3.org/1999/xlink">
    <!-- Generator: Sketch 53.2 (72643) - https://sketchapp.com -->
    <title>PF4</title>
    <desc>Created with Sketch.</desc>
    <defs>
        <linearGradient x1="49.9787368%" y1="3.15251895%" x2="49.9787368%" y2="100.372269%" id="linearGradient-1">
            <stop stop-color="#54EEFF" offset="0%"></stop>
            <stop stop-color="#1C75BC" offset="100%"></stop>
        </linearGradient>
    </defs>
    <g id="PATTERNFLY" stroke="none" stroke-width="1" fill="none" fill-rule="evenodd">
        <g id="4-Desktop-HOME-PAGE" transform="translate(-658.000000, -193.000000)" fill="url(#linearGradient-1)" fill-rule="nonzero">
            <g id="HERO" transform="translate(-81.000000, 60.000000)">
                <g id="PF4" transform="translate(739.000000, 133.000000)">
                    <path d="M62.6315789,0.263040571 L62.6315789,0.157824342 L62.6315789,0.263040571 L62.5789474,0.210432457 L62.5789474,0.0526081141 L62.4736842,0.105216228 L62.3684211,0 L62.3684211,0.157824342 L62.3684211,0.157824342 L62.3157895,0.105216228 L62.3157895,0.210432457 L0,61.1306286 L24.6842105,96.0624164 L43.7368421,91.6959429 L62.4736842,118 L81.2105263,91.6959429 L100.263158,96.0624164 L115.578947,74.3878734 L125,61.0780205 L62.6315789,0.263040571 Z M60.5789474,7.41774409 L52.0526316,87.1716451 L35.4210526,64.4975479 L60.5789474,7.41774409 Z M34.6315789,63.3401694 L24.1578947,49.0833705 L60.5263158,4.62951404 L34.6315789,63.3401694 Z M51.6842105,88.6972804 L44.2631579,90.3807401 L31.7368421,72.80963 L34.8421053,65.7601427 L51.6842105,88.6972804 Z M62.2631579,3.52474365 L62.4736842,3.10387873 L62.6842105,3.52474365 L71.4736842,89.2759697 L71.4210526,89.2759697 L62.7894737,102.007133 L53.4736842,89.2233616 L53.4736842,89.2233616 L62.2631579,3.52474365 Z M72.8947368,87.1716451 L64.3684211,7.41774409 L89.5263158,64.4975479 L72.8947368,87.1716451 Z M90.0526316,65.7075346 L93.1578947,72.7570218 L80.6315789,90.328132 L73.2105263,88.6446723 L90.0526316,65.7075346 Z M64.4736842,4.62951404 L100.842105,49.0833705 L90.3684211,63.3401694 L64.4736842,4.62951404 Z M25.2105263,94.7472136 L1.57894737,61.288453 L56.5789474,7.57556844 L22.6315789,49.0307624 L34.0526316,64.6027642 L30.3684211,72.9148462 L43,90.6437807 L25.2105263,94.7472136 Z M62.4736842,116.000892 L45,91.4855105 L52.4736842,89.7494427 L52.5789474,89.9072671 L52.4736842,89.9598752 L62.7894737,104.111458 L72.3684211,89.9598752 L72.2631579,89.9072671 L72.3684211,89.7494427 L79.8421053,91.4855105 L62.4736842,116.000892 Z M114.578947,73.756576 L99.7368421,94.7472136 L81.9473684,90.6437807 L94.5789474,72.9148462 L90.8947368,64.6027642 L102.315789,49.0307624 L68.3684211,7.52296032 L123.368421,61.2358449 L114.578947,73.756576 Z" id="Shape"></path>
                </g>
            </g>
        </g>
    </g>
</svg>